# xmcd CD database file
#
# Track frame offsets:
#	150
#	20502
#	36957
#	57345
#	74725
#	101077
#	118650
#	140135
#	155747
#	176415
#
# Disc length: 2598 seconds
#
# Revision: 5
# Processed by: cddbd v1.5.2PL0 Copyright (c) Steve Scherf et al.
# Submitted via: CDex 1.70beta3
#
DISCID=970a240a
DTITLE=浜田麻里 - RETURN TO MYSELF
DYEAR=1989
DGENRE=J-Metal
TTITLE0=RETURN TO MYSELF
TTITLE1=SEPARATE LIVES
TTITLE2=EMOTION IN MOTION
TTITLE3=WALKING ON THE BORDERLINE
TTITLE4=SECOND WIND
TTITLE5=ONLY IN MY DREAMS
TTITLE6=TAKE ME TO YOUR HEART
TTITLE7=WE SHOULD BE SO LUCKY
TTITLE8=WITH ALL MY LOVE
TTITLE9=RESTLESS KIND
EXTD=YEAR: 1989
EXTT0=
EXTT1=
EXTT2=
EXTT3=
EXTT4=
EXTT5=
EXTT6=
EXTT7=
EXTT8=
EXTT9=
PLAYORDER=
